<svg xmlns="http://www.w3.org/2000/svg" viewBox="0 0 500 500" width="100%" height="100%">
  <defs>
    <filter id="shadow" x="-5%" y="-5%" width="110%" height="115%">
      <feDropShadow dx="0" dy="10" stdDeviation="12" flood-color="#000000" flood-opacity="0.08" />
    </filter>
    <linearGradient id="shade" x1="0%" y1="0%" x2="100%" y2="0%">
      <stop offset="0%" stop-color="#000000" stop-opacity="0.16" />
      <stop offset="50%" stop-color="#FFFFFF" stop-opacity="0.08" />
      <stop offset="100%" stop-color="#000000" stop-opacity="0.16" />
    </linearGradient>
  </defs>
  <g filter="url(#shadow)">
    <!-- Athletic Jersey Contour -->
    <path d="M 180 65 L 250 115 L 320 65 L 420 110 L 375 190 L 332 165 L 336 435 C 336 439 332 442 328 442 L 172 442 C 168 442 164 439 164 435 L 168 165 L 125 190 L 80 110 Z" fill="#FFFFFF" stroke="#D1D5DB" stroke-width="1.3" />
    <path d="M 180 65 L 250 115 L 320 65 L 420 110 L 375 190 L 332 165 L 336 435 C 336 439 332 442 328 442 L 172 442 C 168 442 164 439 164 435 L 168 165 L 125 190 L 80 110 Z" fill="url(#shade)" />
    <!-- V-Neck Collar -->
    <path d="M 180 65 L 250 115 L 320 65 L 310 58 L 250 102 L 190 58 Z" fill="#F3F4F6" stroke="#D1D5DB" stroke-width="1.6" />
    <!-- Raglan Seams -->
    <line x1="180" y1="65" x2="168" y2="165" stroke="#D1D5DB" stroke-width="1.2" />
    <line x1="320" y1="65" x2="332" y2="165" stroke="#D1D5DB" stroke-width="1.2" />
    <!-- Side Panels -->
    <path d="M 168 165 L 180 165 L 182 440 L 164 440 Z" fill="#000000" opacity="0.06" />
    <path d="M 332 165 L 320 165 L 318 440 L 336 440 Z" fill="#000000" opacity="0.06" />
  </g>
</svg>
