<svg xmlns="http://www.w3.org/2000/svg" viewBox="0 0 500 500" width="100%" height="100%">
  <defs>
    <filter id="shadow" x="-5%" y="-5%" width="110%" height="115%">
      <feDropShadow dx="0" dy="10" stdDeviation="12" flood-color="#000000" flood-opacity="0.08" />
    </filter>
    <linearGradient id="shade" x1="0%" y1="0%" x2="100%" y2="0%">
      <stop offset="0%" stop-color="#000000" stop-opacity="0.18" />
      <stop offset="15%" stop-color="#000000" stop-opacity="0.03" />
      <stop offset="50%" stop-color="#FFFFFF" stop-opacity="0.08" />
      <stop offset="85%" stop-color="#000000" stop-opacity="0.03" />
      <stop offset="100%" stop-color="#000000" stop-opacity="0.18" />
    </linearGradient>
  </defs>
  <g filter="url(#shadow)">
    <path d="M 175 64 C 210 75 290 75 325 64 L 425 115 L 375 198 L 330 174 L 335 432 C 335 436 331 440 326 440 L 174 440 C 169 440 165 436 165 432 L 170 174 L 125 198 L 75 115 Z" fill="#FFFFFF" stroke="#D1D5DB" stroke-width="1.2" />
    <path d="M 175 64 C 210 75 290 75 325 64 L 425 115 L 375 198 L 330 174 L 335 432 C 335 436 331 440 326 440 L 174 440 C 169 440 165 436 165 432 L 170 174 L 125 198 L 75 115 Z" fill="url(#shade)" />
    <path d="M 175 64 C 210 76 290 76 325 64 C 305 70 195 70 175 64 Z" fill="#F3F4F6" stroke="#D1D5DB" stroke-width="1.5" />
    <path d="M 180 67 C 212 78 288 78 320 67" fill="none" stroke="#D1D5DB" stroke-width="0.8" stroke-dasharray="2,2" />
    <path d="M 170 174 C 185 130 195 98 205 75" fill="none" stroke="#D1D5DB" stroke-width="1" opacity="0.65" />
    <path d="M 330 174 C 315 130 305 98 295 75" fill="none" stroke="#D1D5DB" stroke-width="1" opacity="0.65" />
    <line x1="166" y1="428" x2="334" y2="428" stroke="#D1D5DB" stroke-width="0.8" stroke-dasharray="3,2" />
  </g>
</svg>
